<svg xmlns="http://www.w3.org/2000/svg" xmlns:xlink="http://www.w3.org/1999/xlink" width="265" zoomAndPan="magnify" viewBox="0 0 198.75 112.499997" height="150" preserveAspectRatio="xMidYMid meet" version="1.0"><defs><clipPath id="0a185c8f62"><path d="M 139 49 L 196 49 L 196 105.226562 L 139 105.226562 Z M 139 49 " clip-rule="nonzero"/></clipPath></defs><path fill="#ffffff" d="M 144.273438 4.136719 C 144.132812 4.109375 143.996094 4.082031 143.839844 4.066406 L 143.671875 4.039062 C 143.429688 4 143.171875 3.972656 142.929688 3.957031 C 142.75 3.941406 142.585938 3.929688 142.414062 3.914062 C 142.117188 3.894531 141.808594 3.894531 141.519531 3.894531 C 141.382812 3.894531 141.300781 3.894531 141.175781 3.894531 C 140.949219 3.894531 140.703125 3.914062 140.472656 3.933594 C 140.335938 3.933594 140.207031 3.945312 140.074219 3.960938 C 139.882812 3.972656 139.695312 4 139.515625 4.027344 L 139.371094 4.039062 L 139.199219 4.066406 L 138.980469 4.09375 C 138.894531 4.109375 138.800781 4.132812 138.71875 4.136719 C 138.582031 4.164062 138.464844 4.191406 138.332031 4.21875 C 137.589844 4.382812 136.886719 4.589844 136.234375 4.851562 C 135.898438 4.980469 135.574219 5.113281 135.265625 5.269531 C 135.023438 5.394531 134.777344 5.519531 134.542969 5.65625 C 134.316406 5.792969 134.097656 5.921875 133.875 6.0625 C 133.765625 6.144531 133.648438 6.226562 133.53125 6.308594 C 133.429688 6.378906 133.332031 6.449219 133.230469 6.523438 C 133.035156 6.679688 132.835938 6.84375 132.664062 7.003906 C 132.480469 7.15625 132.308594 7.3125 132.164062 7.464844 C 132.027344 7.601562 131.902344 7.734375 131.765625 7.878906 C 131.632812 8.023438 131.515625 8.160156 131.386719 8.3125 C 131.246094 8.476562 131.125 8.648438 131 8.820312 C 130.898438 8.945312 130.816406 9.082031 130.738281 9.214844 C 130.664062 9.304688 130.609375 9.398438 130.554688 9.484375 C 130.222656 10.035156 129.921875 10.617188 129.6875 11.238281 C 129.390625 12.015625 129.164062 12.855469 129.046875 13.738281 C 129.007812 14.019531 128.980469 14.308594 128.964844 14.597656 C 128.945312 14.824219 128.945312 15.046875 128.945312 15.273438 C 128.945312 15.445312 128.945312 15.617188 128.945312 15.777344 C 128.964844 15.960938 128.984375 16.128906 129 16.300781 L 129.011719 16.417969 C 129.050781 16.625 129.078125 16.824219 129.109375 17.019531 C 129.128906 17.09375 129.136719 17.175781 129.15625 17.246094 C 129.191406 17.410156 129.238281 17.582031 129.269531 17.734375 C 129.34375 17.941406 129.398438 18.152344 129.460938 18.347656 C 129.550781 18.59375 129.632812 18.828125 129.730469 19.0625 C 129.886719 19.433594 130.050781 19.785156 130.238281 20.121094 C 130.351562 20.3125 130.457031 20.5 130.570312 20.691406 C 130.660156 20.835938 130.761719 20.980469 130.839844 21.113281 C 130.976562 21.285156 131.105469 21.46875 131.230469 21.628906 C 131.367188 21.800781 131.511719 21.976562 131.636719 22.128906 C 131.816406 22.328125 131.972656 22.507812 132.152344 22.671875 L 132.242188 22.761719 C 132.386719 22.886719 132.53125 23.03125 132.703125 23.175781 C 132.828125 23.277344 132.9375 23.386719 133.070312 23.484375 C 133.199219 23.582031 133.3125 23.683594 133.460938 23.78125 C 133.625 23.890625 133.796875 24.015625 133.976562 24.132812 C 134.167969 24.25 134.367188 24.375 134.574219 24.496094 C 134.996094 24.730469 135.46875 24.957031 135.972656 25.164062 C 136.164062 25.246094 136.371094 25.316406 136.570312 25.382812 C 136.769531 25.453125 136.988281 25.519531 137.195312 25.574219 C 137.566406 25.683594 137.953125 25.773438 138.359375 25.855469 C 138.695312 25.917969 139.03125 25.96875 139.382812 26.019531 C 139.726562 26.054688 140.085938 26.089844 140.46875 26.105469 C 140.660156 26.117188 140.828125 26.125 141.027344 26.125 C 141.117188 26.125 141.207031 26.125 141.289062 26.125 C 141.960938 26.125 142.582031 26.105469 143.160156 26.050781 L 143.269531 26.042969 C 143.496094 26.027344 143.730469 26 143.941406 25.972656 C 144.273438 25.933594 144.582031 25.882812 144.878906 25.828125 C 145.070312 25.800781 145.246094 25.761719 145.4375 25.71875 C 145.707031 25.664062 145.972656 25.601562 146.21875 25.539062 C 146.410156 25.484375 146.585938 25.429688 146.761719 25.382812 C 146.957031 25.320312 147.167969 25.246094 147.347656 25.1875 L 147.539062 25.121094 C 147.628906 25.09375 147.757812 25.050781 147.902344 24.984375 C 148.089844 24.914062 148.324219 24.820312 148.585938 24.703125 C 148.75 24.640625 148.921875 24.566406 149.09375 24.484375 C 149.246094 24.414062 149.417969 24.332031 149.582031 24.25 C 149.652344 24.210938 149.722656 24.183594 149.789062 24.152344 L 149.785156 20.058594 C 149.742188 20.085938 149.675781 20.121094 149.640625 20.144531 L 149.363281 20.316406 C 149.070312 20.480469 148.8125 20.640625 148.53125 20.792969 C 148.234375 20.949219 147.945312 21.101562 147.648438 21.238281 C 147.144531 21.480469 146.664062 21.683594 146.183594 21.851562 C 145.289062 22.171875 144.476562 22.375 143.746094 22.503906 C 143.65625 22.519531 143.566406 22.527344 143.492188 22.546875 C 143.296875 22.574219 143.097656 22.601562 142.921875 22.617188 C 142.632812 22.644531 142.363281 22.664062 142.128906 22.683594 C 141.964844 22.683594 141.808594 22.683594 141.683594 22.683594 C 141.386719 22.683594 141.097656 22.683594 140.789062 22.65625 C 140.425781 22.628906 140.066406 22.589844 139.695312 22.527344 C 139.09375 22.433594 138.484375 22.285156 137.90625 22.070312 C 137.816406 22.042969 137.726562 22.007812 137.644531 21.972656 C 137.589844 21.957031 137.535156 21.929688 137.480469 21.90625 C 137.382812 21.863281 137.289062 21.820312 137.199219 21.78125 C 137.003906 21.683594 136.792969 21.582031 136.601562 21.472656 C 136.515625 21.410156 136.410156 21.359375 136.3125 21.292969 C 136.210938 21.230469 136.109375 21.167969 136.019531 21.105469 C 135.902344 21.023438 135.792969 20.941406 135.667969 20.851562 C 135.558594 20.753906 135.449219 20.660156 135.347656 20.582031 L 135.207031 20.457031 L 135.140625 20.390625 L 135.097656 20.355469 L 135.050781 20.308594 C 134.863281 20.128906 134.699219 19.941406 134.53125 19.761719 C 134.449219 19.652344 134.367188 19.550781 134.292969 19.441406 C 134.210938 19.34375 134.140625 19.234375 134.097656 19.136719 C 134.023438 19.046875 133.960938 18.945312 133.90625 18.84375 C 133.824219 18.703125 133.734375 18.554688 133.667969 18.410156 C 133.605469 18.296875 133.554688 18.167969 133.503906 18.050781 C 133.417969 17.839844 133.324219 17.632812 133.28125 17.433594 C 133.226562 17.28125 133.179688 17.128906 133.152344 16.972656 C 133.027344 16.550781 132.972656 16.152344 132.964844 15.816406 C 132.9375 15.691406 132.9375 15.574219 132.925781 15.464844 C 132.914062 15.300781 132.914062 15.15625 132.914062 15.042969 C 132.914062 14.96875 132.914062 14.878906 132.914062 14.789062 C 132.925781 14.546875 132.941406 14.257812 132.996094 13.910156 C 133.035156 13.703125 133.070312 13.488281 133.125 13.253906 C 133.167969 13.097656 133.210938 12.945312 133.261719 12.78125 C 133.304688 12.636719 133.359375 12.492188 133.414062 12.335938 C 133.453125 12.238281 133.503906 12.140625 133.558594 12.03125 C 133.613281 11.894531 133.671875 11.75 133.75 11.613281 C 133.804688 11.503906 133.859375 11.40625 133.929688 11.296875 C 134.066406 11.058594 134.210938 10.824219 134.390625 10.597656 C 134.457031 10.511719 134.515625 10.429688 134.582031 10.347656 C 134.671875 10.246094 134.761719 10.136719 134.863281 10.039062 C 134.898438 9.984375 134.949219 9.921875 135.003906 9.875 C 135.761719 9.125 136.601562 8.558594 137.46875 8.15625 C 137.613281 8.09375 137.75 8.042969 137.894531 7.988281 C 138.039062 7.933594 138.164062 7.878906 138.300781 7.832031 C 138.464844 7.789062 138.617188 7.734375 138.761719 7.691406 C 138.914062 7.652344 139.058594 7.617188 139.207031 7.582031 C 139.347656 7.554688 139.484375 7.527344 139.640625 7.5 C 139.808594 7.460938 139.957031 7.445312 140.109375 7.425781 C 140.273438 7.398438 140.433594 7.382812 140.589844 7.371094 C 140.886719 7.34375 141.183594 7.328125 141.472656 7.328125 C 141.570312 7.328125 141.664062 7.328125 141.753906 7.328125 C 141.972656 7.339844 142.175781 7.34375 142.378906 7.355469 C 142.53125 7.367188 142.65625 7.371094 142.792969 7.394531 C 143.046875 7.421875 143.308594 7.449219 143.535156 7.480469 C 143.753906 7.519531 143.957031 7.554688 144.148438 7.589844 C 144.429688 7.65625 144.71875 7.71875 144.945312 7.78125 C 145.109375 7.820312 145.253906 7.863281 145.390625 7.898438 C 145.585938 7.964844 145.757812 8.015625 145.886719 8.0625 C 146.113281 8.132812 146.238281 8.1875 146.238281 8.1875 C 146.4375 8.253906 146.644531 8.332031 146.835938 8.414062 C 147.097656 8.511719 147.351562 8.632812 147.585938 8.738281 C 147.785156 8.828125 147.976562 8.917969 148.15625 9.007812 C 148.300781 9.078125 148.4375 9.152344 148.5625 9.214844 C 148.789062 9.332031 148.980469 9.433594 149.132812 9.523438 L 149.558594 9.75 L 149.550781 5.71875 C 149.550781 5.71875 149.308594 5.621094 148.863281 5.457031 C 148.671875 5.386719 148.441406 5.292969 148.195312 5.203125 C 148.050781 5.160156 147.898438 5.105469 147.734375 5.050781 C 147.597656 5.007812 147.480469 4.960938 147.328125 4.914062 C 147.183594 4.859375 147.03125 4.816406 146.855469 4.761719 C 146.742188 4.722656 146.621094 4.6875 146.496094 4.652344 L 146.378906 4.613281 C 146.261719 4.585938 146.144531 4.546875 146.015625 4.515625 C 145.875 4.476562 145.71875 4.441406 145.574219 4.40625 C 145.464844 4.378906 145.375 4.359375 145.28125 4.332031 C 145.113281 4.296875 144.957031 4.261719 144.792969 4.222656 C 144.609375 4.203125 144.4375 4.167969 144.273438 4.140625 M 124.113281 -0.0546875 L 156.121094 -0.0546875 L 156.121094 30.066406 L 124.113281 30.066406 Z M 124.113281 -0.0546875 " fill-opacity="1" fill-rule="evenodd"/><path fill="#ffffff" d="M 99.511719 16.558594 L 99.511719 22.476562 L 103.351562 22.476562 C 103.351562 22.476562 103.433594 22.476562 103.5625 22.46875 C 103.6875 22.46875 103.867188 22.457031 104.09375 22.441406 C 104.511719 22.402344 105.058594 22.324219 105.59375 22.144531 C 106.070312 21.980469 106.542969 21.738281 106.902344 21.375 C 107.039062 21.238281 107.15625 21.09375 107.25 20.953125 C 107.546875 20.480469 107.628906 19.996094 107.644531 19.722656 C 107.65625 19.605469 107.65625 19.53125 107.65625 19.53125 C 107.65625 19.53125 107.65625 19.476562 107.65625 19.386719 C 107.640625 19.273438 107.632812 19.054688 107.570312 18.816406 C 107.496094 18.539062 107.359375 18.214844 107.117188 17.90625 C 107.074219 17.851562 107.03125 17.796875 106.976562 17.742188 C 106.867188 17.632812 106.75 17.535156 106.625 17.445312 C 106.414062 17.292969 106.179688 17.15625 105.921875 17.050781 C 105.574219 16.894531 105.1875 16.785156 104.761719 16.703125 C 104.542969 16.660156 104.3125 16.632812 104.078125 16.605469 C 103.933594 16.59375 103.785156 16.589844 103.632812 16.578125 C 103.507812 16.570312 103.359375 16.5625 103.234375 16.5625 Z M 99.511719 16.558594 " fill-opacity="1" fill-rule="evenodd"/><path fill="#ffffff" d="M 99.511719 7.5625 L 99.511719 13.171875 L 101.371094 13.171875 C 101.371094 13.171875 101.5 13.171875 101.664062 13.164062 C 101.789062 13.164062 101.941406 13.152344 102.078125 13.144531 C 102.46875 13.117188 102.992188 13.0625 103.523438 12.921875 C 103.621094 12.894531 103.730469 12.855469 103.832031 12.820312 C 104.246094 12.679688 104.644531 12.460938 104.949219 12.152344 C 105.203125 11.910156 105.367188 11.648438 105.472656 11.382812 C 105.597656 11.058594 105.644531 10.753906 105.664062 10.535156 C 105.679688 10.335938 105.679688 10.214844 105.679688 10.214844 C 105.679688 10.214844 105.691406 10.128906 105.671875 9.972656 C 105.660156 9.730469 105.605469 9.332031 105.417969 8.953125 C 105.328125 8.773438 105.199219 8.589844 105.027344 8.421875 C 104.820312 8.210938 104.558594 8.058594 104.289062 7.933594 C 103.765625 7.707031 103.167969 7.613281 102.664062 7.582031 C 102.445312 7.5625 102.246094 7.5625 102.074219 7.5625 Z M 99.511719 7.5625 " fill-opacity="1" fill-rule="evenodd"/><path fill="#ffffff" d="M 95.625 4.164062 L 95.625 25.863281 L 103.785156 25.863281 C 103.785156 25.863281 107.769531 25.972656 109.972656 23.777344 C 111.761719 21.980469 111.636719 19.914062 111.636719 19.914062 C 111.636719 19.914062 111.773438 17.753906 110.101562 16.09375 C 108.699219 14.683594 106.894531 14.3125 106.894531 14.3125 C 106.894531 14.3125 107.714844 13.925781 108.339844 13.304688 C 108.617188 13.011719 109.675781 12.066406 109.675781 9.777344 C 109.675781 7.484375 108.140625 6.15625 108.140625 6.15625 C 108.140625 6.15625 106.449219 4.167969 102.671875 4.167969 Z M 87.226562 -0.0546875 L 119.234375 -0.0546875 L 119.234375 30.0625 L 87.226562 30.066406 Z M 87.226562 -0.0546875 " fill-opacity="1" fill-rule="evenodd"/><path fill="#ffffff" d="M 62.625 16.558594 L 62.625 22.476562 L 66.472656 22.476562 C 66.472656 22.476562 66.546875 22.476562 66.671875 22.46875 C 66.796875 22.46875 66.980469 22.457031 67.203125 22.441406 C 67.628906 22.402344 68.171875 22.324219 68.703125 22.144531 C 69.191406 21.980469 69.660156 21.738281 70.015625 21.375 C 70.152344 21.238281 70.265625 21.09375 70.367188 20.953125 C 70.664062 20.480469 70.734375 19.996094 70.753906 19.722656 C 70.765625 19.605469 70.765625 19.53125 70.765625 19.53125 C 70.765625 19.53125 70.765625 19.476562 70.765625 19.386719 C 70.765625 19.273438 70.75 19.054688 70.695312 18.816406 C 70.613281 18.539062 70.476562 18.214844 70.242188 17.90625 C 70.199219 17.851562 70.144531 17.796875 70.089844 17.742188 C 69.980469 17.632812 69.871094 17.535156 69.746094 17.445312 C 69.535156 17.292969 69.292969 17.15625 69.03125 17.050781 C 68.6875 16.894531 68.300781 16.785156 67.875 16.703125 C 67.65625 16.660156 67.429688 16.632812 67.195312 16.605469 C 67.042969 16.59375 66.898438 16.589844 66.746094 16.578125 C 66.621094 16.570312 66.472656 16.5625 66.339844 16.5625 Z M 62.625 16.558594 " fill-opacity="1" fill-rule="evenodd"/><path fill="#ffffff" d="M 62.625 7.5625 L 62.625 13.171875 L 64.484375 13.171875 C 64.484375 13.171875 64.613281 13.171875 64.777344 13.164062 C 64.902344 13.164062 65.054688 13.152344 65.191406 13.144531 C 65.582031 13.117188 66.105469 13.0625 66.636719 12.921875 C 66.734375 12.894531 66.84375 12.855469 66.945312 12.8125 C 67.359375 12.667969 67.757812 12.449219 68.074219 12.140625 C 68.316406 11.898438 68.480469 11.636719 68.589844 11.375 C 68.726562 11.050781 68.769531 10.742188 68.78125 10.523438 C 68.796875 10.324219 68.796875 10.207031 68.796875 10.207031 C 68.796875 10.207031 68.808594 10.117188 68.796875 9.964844 C 68.78125 9.722656 68.734375 9.320312 68.535156 8.941406 C 68.445312 8.761719 68.316406 8.582031 68.144531 8.410156 C 67.9375 8.203125 67.683594 8.046875 67.414062 7.921875 C 66.890625 7.695312 66.285156 7.617188 65.78125 7.582031 C 65.5625 7.5625 65.363281 7.5625 65.191406 7.5625 Z M 62.625 7.5625 " fill-opacity="1" fill-rule="evenodd"/><path fill="#ffffff" d="M 58.742188 4.164062 L 58.742188 25.863281 L 66.90625 25.863281 C 66.90625 25.863281 70.890625 25.972656 73.085938 23.769531 C 74.875 21.980469 74.75 19.910156 74.75 19.910156 C 74.75 19.910156 74.875 17.75 73.222656 16.089844 C 71.8125 14.679688 70.007812 14.300781 70.007812 14.300781 C 70.007812 14.300781 70.820312 13.921875 71.453125 13.296875 C 71.742188 13.003906 72.78125 12.058594 72.78125 9.773438 C 72.78125 7.46875 71.253906 6.148438 71.253906 6.148438 C 71.253906 6.148438 69.574219 4.164062 65.785156 4.164062 Z M 50.351562 -0.0546875 L 82.355469 -0.0546875 L 82.355469 30.0625 L 50.351562 30.066406 Z M 50.351562 -0.0546875 " fill-opacity="1" fill-rule="evenodd"/><path fill="#ffffff" d="M 10.175781 59.605469 L 10.175781 51.054688 L 52.210938 51.054688 L 52.210938 59.605469 L 35.921875 59.605469 L 35.921875 104.191406 L 26.464844 104.191406 L 26.464844 59.605469 Z M 10.175781 59.605469 " fill-opacity="1" fill-rule="evenodd"/><path fill="#ffffff" d="M 135.386719 51.054688 L 119.910156 104.199219 L 110.914062 104.199219 L 98.589844 63.738281 L 98.445312 63.738281 L 86.132812 104.199219 L 77.421875 104.199219 L 61.742188 51.054688 L 72.09375 51.054688 L 82.082031 89.339844 L 82.230469 89.339844 L 94.164062 51.054688 L 103.46875 51.054688 L 115.175781 89.339844 L 115.332031 89.339844 L 125.765625 51.054688 Z M 135.386719 51.054688 " fill-opacity="1" fill-rule="evenodd"/><g clip-path="url(#0a185c8f62)"><path fill="#ffffff" d="M 167.65625 49.699219 C 184.242188 49.398438 195.941406 60.511719 195.941406 77.550781 C 195.941406 94.144531 184.242188 105.246094 167.65625 105.554688 C 151.277344 105.554688 139.570312 94.449219 139.570312 77.855469 C 139.558594 60.808594 151.277344 49.699219 167.65625 49.699219 M 167.726562 96.992188 C 178.761719 96.992188 186.03125 88.585938 186.03125 77.242188 C 186.03125 66.664062 178.746094 58.25 167.726562 58.25 C 156.769531 58.25 149.476562 66.660156 149.476562 77.242188 C 149.476562 88.597656 156.769531 96.992188 167.726562 96.992188 Z M 167.726562 96.992188 " fill-opacity="1" fill-rule="evenodd"/></g></svg>